PathFileType	4	(X/Y/Z)	 2.6Hz3min.trc
DataRate	CameraRate	NumFrames	NumMarkers	Units	OrigDataRate	OrigDataStartFrame	OrigNumFrames
200	200	9	43	m	200	750	999
Frame#	Time	C7			LSH			RSH			MAN			RASI			LASI			HIPR			HIPL			RPSI			LPSI			COX			RTHI1			RTHI2			RTHI3			RTHI4			RLKN			RMKN			RSHA1			RSHA2			RSHA3			RSHA4			RLMAL			RMMAL			RHEEL			RMET5			RMET1			RTOE			LTHI1			LTHI2			LTHI3			LTHI4			LLKN			LMKN			LSHA1			LSHA2			LSHA3			LSHA4			LLMAL			LMMAL			LHEEL			LMET5			LMET1			LTOE			
		X1	Y1	Z1	X2	Y2	Z2	X3	Y3	Z3	X4	Y4	Z4	X5	Y5	Z5	X6	Y6	Z6	X7	Y7	Z7	X8	Y8	Z8	X9	Y9	Z9	X10	Y10	Z10	X11	Y11	Z11	X12	Y12	Z12	X13	Y13	Z13	X14	Y14	Z14	X15	Y15	Z15	X16	Y16	Z16	X17	Y17	Z17	X18	Y18	Z18	X19	Y19	Z19	X20	Y20	Z20	X21	Y21	Z21	X22	Y22	Z22	X23	Y23	Z23	X24	Y24	Z24	X25	Y25	Z25	X26	Y26	Z26	X27	Y27	Z27	X28	Y28	Z28	X29	Y29	Z29	X30	Y30	Z30	X31	Y31	Z31	X32	Y32	Z32	X33	Y33	Z33	X34	Y34	Z34	X35	Y35	Z35	X36	Y36	Z36	X37	Y37	Z37	X38	Y38	Z38	X39	Y39	Z39	X40	Y40	Z40	X41	Y41	Z41	X42	Y42	Z42	X43	Y43	Z43	
750	3.7500	-0.301497	1.518559	-0.542132	-0.231880	1.499051	-0.743799	-0.209714	1.485164	-0.357371	-0.158542	1.445049	-0.554442	-0.150261	1.007454	-0.434923	-0.155333	1.020288	-0.678728	-0.233962	1.066817	-0.394158	-0.233637	1.065967	-0.713945	-0.332273	1.051650	-0.498536	-0.334058	1.044157	-0.602442	-0.338540	1.043026	-0.548962	-0.192117	0.734803	-0.354642	-0.176503	0.676482	-0.355946	-0.114022	0.689752	-0.367465	-0.121349	0.750819	-0.366668	-0.152616	0.490471	-0.365176	-0.147433	0.460786	-0.475647	-0.260359	0.330272	-0.341228	-0.277764	0.292196	-0.351532	-0.209012	0.311516	-0.341743	-0.220104	0.272637	-0.346130	-0.317337	0.119156	-0.363126	-0.278372	0.117653	-0.441863	-0.367288	0.106490	-0.416707	-0.225338	0.039674	-0.325031	-0.168176	0.048047	-0.392767	-0.144521	0.038781	-0.391773	-0.202550	0.743479	-0.747786	-0.186572	0.684108	-0.747697	-0.122597	0.694917	-0.743475	-0.130932	0.754336	-0.744082	-0.164005	0.488873	-0.742607	-0.161836	0.466424	-0.629378	-0.280946	0.328034	-0.756221	-0.298641	0.292463	-0.748401	-0.242223	0.268289	-0.751617	-0.230035	0.309908	-0.760655	-0.341526	0.127290	-0.745570	-0.313367	0.137401	-0.663452	-0.397877	0.125703	-0.691964	-0.257826	0.044776	-0.773427	-0.205484	0.049358	-0.706190	-0.180356	0.041066	-0.715077	
751	3.7550	-0.300691	1.514837	-0.542211	-0.231130	1.494935	-0.743999	-0.208909	1.480935	-0.357387	-0.157867	1.440814	-0.554581	-0.150911	1.003749	-0.435119	-0.155956	1.016498	-0.679153	-0.234798	1.062976	-0.394247	-0.234711	1.061921	-0.714134	-0.332891	1.047642	-0.498716	-0.334749	1.040074	-0.602420	-0.339280	1.038917	-0.549038	-0.191888	0.731194	-0.354766	-0.175979	0.672962	-0.356011	-0.113568	0.686499	-0.367578	-0.121179	0.747537	-0.366856	-0.151250	0.487007	-0.365188	-0.146006	0.457376	-0.475637	-0.259977	0.327392	-0.341650	-0.277589	0.289376	-0.351991	-0.208740	0.308269	-0.342021	-0.220070	0.269450	-0.346484	-0.318396	0.116912	-0.364059	-0.279322	0.115235	-0.442649	-0.368222	0.103872	-0.417542	-0.225937	0.038770	-0.324080	-0.168390	0.047743	-0.392700	-0.144548	0.038425	-0.391812	-0.202459	0.739612	-0.748105	-0.186193	0.680321	-0.748075	-0.122282	0.691444	-0.743772	-0.130906	0.750819	-0.744310	-0.162624	0.485266	-0.742784	-0.160680	0.462929	-0.629570	-0.279838	0.324665	-0.756718	-0.297655	0.289158	-0.748848	-0.241418	0.264912	-0.751723	-0.228957	0.306414	-0.760872	-0.341798	0.124633	-0.745600	-0.313860	0.134647	-0.663350	-0.398348	0.123071	-0.692152	-0.257810	0.042782	-0.774435	-0.205281	0.048018	-0.705627	-0.179979	0.040099	-0.714259	
752	3.7600	-0.299885	1.510941	-0.542295	-0.230431	1.490647	-0.744192	-0.208120	1.476539	-0.357424	-0.157181	1.436390	-0.554726	-0.151569	0.999845	-0.435289	-0.156534	1.012513	-0.679581	-0.235656	1.058922	-0.394322	-0.235761	1.057671	-0.714321	-0.333512	1.043430	-0.498941	-0.335429	1.035785	-0.602403	-0.340028	1.034613	-0.549153	-0.191715	0.727371	-0.354765	-0.175471	0.669245	-0.355938	-0.113133	0.683100	-0.367560	-0.121064	0.744102	-0.366927	-0.149858	0.483443	-0.365111	-0.144392	0.453793	-0.475553	-0.259755	0.324564	-0.342133	-0.277654	0.286659	-0.352540	-0.208723	0.305068	-0.342295	-0.220312	0.266286	-0.346833	-0.319826	0.114841	-0.364899	-0.280586	0.112873	-0.443415	-0.369443	0.101361	-0.418257	-0.226769	0.038005	-0.323191	-0.168913	0.047621	-0.392555	-0.144900	0.038243	-0.391679	-0.202478	0.735515	-0.748484	-0.185938	0.676304	-0.748522	-0.122078	0.687731	-0.744198	-0.130986	0.747062	-0.744658	-0.161209	0.481451	-0.742982	-0.159613	0.459242	-0.629802	-0.278917	0.321232	-0.757280	-0.296891	0.285817	-0.749340	-0.240818	0.261442	-0.751811	-0.228080	0.302798	-0.761087	-0.342511	0.122104	-0.745630	-0.314878	0.132003	-0.663214	-0.399281	0.120482	-0.692436	-0.257976	0.041179	-0.775526	-0.205335	0.047129	-0.705239	-0.179848	0.039498	-0.713622	
753	3.7650	-0.299077	1.506917	-0.542387	-0.229791	1.486221	-0.744379	-0.207358	1.471997	-0.357475	-0.156492	1.431797	-0.554880	-0.152232	0.995748	-0.435431	-0.157062	1.008336	-0.680014	-0.236535	1.054660	-0.394378	-0.236769	1.053214	-0.714503	-0.334141	1.039024	-0.499210	-0.336100	1.031295	-0.602395	-0.340794	1.030135	-0.549313	-0.191587	0.723366	-0.354638	-0.174960	0.665349	-0.355735	-0.112701	0.679575	-0.367401	-0.120991	0.740533	-0.366866	-0.148413	0.479811	-0.365010	-0.142636	0.450085	-0.475409	-0.259634	0.321804	-0.342659	-0.277903	0.284077	-0.353166	-0.208862	0.301923	-0.342557	-0.220769	0.263193	-0.347136	-0.321378	0.112819	-0.365594	-0.282026	0.110545	-0.444142	-0.370818	0.098902	-0.418819	-0.227695	0.037302	-0.322430	-0.169624	0.047532	-0.392381	-0.145458	0.038112	-0.391432	-0.202595	0.731205	-0.748917	-0.185792	0.672079	-0.749034	-0.121970	0.683784	-0.744780	-0.131156	0.743079	-0.745152	-0.159765	0.477454	-0.743217	-0.158606	0.455365	-0.630098	-0.278220	0.317825	-0.757857	-0.296405	0.282537	-0.749834	-0.240456	0.257940	-0.751888	-0.227474	0.299133	-0.761275	-0.343610	0.119756	-0.745678	-0.316353	0.129535	-0.663071	-0.400600	0.118003	-0.692817	-0.258352	0.039899	-0.776612	-0.205701	0.046614	-0.705011	-0.180024	0.039176	-0.713200	
754	3.7700	-0.298262	1.502806	-0.542490	-0.229231	1.481674	-0.744568	-0.206658	1.467334	-0.357547	-0.155787	1.427065	-0.555041	-0.152893	0.991473	-0.435528	-0.157534	1.003967	-0.680451	-0.237447	1.050192	-0.394405	-0.237732	1.048556	-0.714680	-0.334799	1.034441	-0.499532	-0.336776	1.026622	-0.602406	-0.341558	1.025484	-0.549502	-0.191473	0.719196	-0.354397	-0.174436	0.661330	-0.355417	-0.112257	0.675950	-0.367107	-0.120941	0.736859	-0.366662	-0.146985	0.476149	-0.364884	-0.140799	0.446315	-0.475230	-0.259529	0.319089	-0.343193	-0.278186	0.281598	-0.353778	-0.209043	0.298860	-0.342790	-0.221278	0.260198	-0.347375	-0.322930	0.110810	-0.366116	-0.283467	0.108204	-0.444820	-0.372203	0.096397	-0.419290	-0.228562	0.036656	-0.321778	-0.170349	0.047435	-0.392329	-0.146073	0.038001	-0.391231	-0.202790	0.726701	-0.749391	-0.185726	0.667653	-0.749603	-0.121941	0.679626	-0.745530	-0.131392	0.738889	-0.745806	-0.158329	0.473327	-0.743499	-0.157628	0.451318	-0.630483	-0.277724	0.314506	-0.758412	-0.296189	0.279393	-0.750323	-0.240319	0.254454	-0.751971	-0.227106	0.295495	-0.761449	-0.344993	0.117596	-0.745764	-0.318152	0.127218	-0.662957	-0.402171	0.115653	-0.693289	-0.258897	0.038852	-0.777675	-0.206310	0.046374	-0.704946	-0.180434	0.039025	-0.712994	
755	3.7750	-0.297451	1.498661	-0.542606	-0.228752	1.477036	-0.744760	-0.206023	1.462573	-0.357626	-0.155066	1.422221	-0.555214	-0.153545	0.987028	-0.435569	-0.157950	0.999416	-0.680893	-0.238387	1.045528	-0.394390	-0.238631	1.043687	-0.714871	-0.335490	1.029698	-0.499907	-0.337469	1.021790	-0.602446	-0.342333	1.020661	-0.549727	-0.191353	0.714910	-0.354064	-0.173875	0.657197	-0.355019	-0.111790	0.672251	-0.366693	-0.120895	0.733109	-0.366320	-0.145547	0.472475	-0.364844	-0.138954	0.442537	-0.475043	-0.259350	0.316373	-0.343700	-0.278350	0.279085	-0.354292	-0.209115	0.295848	-0.342996	-0.221678	0.257254	-0.347535	-0.324354	0.108774	-0.366458	-0.284757	0.105801	-0.445466	-0.373475	0.093771	-0.419730	-0.229281	0.036087	-0.321182	-0.170954	0.047356	-0.392362	-0.146575	0.037905	-0.391111	-0.203032	0.722020	-0.749895	-0.185712	0.663052	-0.750210	-0.121970	0.675284	-0.746436	-0.131674	0.734517	-0.746625	-0.156953	0.469133	-0.743833	-0.156661	0.447127	-0.630972	-0.277362	0.311304	-0.758958	-0.296157	0.276394	-0.750830	-0.240351	0.251009	-0.752074	-0.226909	0.291935	-0.761652	-0.346492	0.115553	-0.745891	-0.320090	0.125001	-0.662885	-0.403869	0.113328	-0.693838	-0.259507	0.037997	-0.778665	-0.207043	0.046260	-0.705026	-0.180976	0.038918	-0.712971	
756	3.7800	-0.296647	1.494534	-0.542739	-0.228365	1.472337	-0.744973	-0.205483	1.457752	-0.357710	-0.154322	1.417312	-0.555393	-0.154187	0.982425	-0.435548	-0.158305	0.994687	-0.681341	-0.239373	1.040681	-0.394333	-0.239444	1.038618	-0.715079	-0.336233	1.024825	-0.500325	-0.338173	1.016812	-0.602510	-0.343125	1.015700	-0.550000	-0.191210	0.710555	-0.353668	-0.173280	0.653004	-0.354579	-0.111302	0.668515	-0.366186	-0.120837	0.729318	-0.365854	-0.144167	0.468836	-0.364801	-0.137180	0.438805	-0.474866	-0.259027	0.313593	-0.344149	-0.278319	0.276523	-0.354752	-0.208976	0.292815	-0.343181	-0.221829	0.254305	-0.347640	-0.325570	0.106695	-0.366631	-0.285813	0.103297	-0.446100	-0.374559	0.091009	-0.420205	-0.229797	0.035604	-0.320626	-0.171361	0.047283	-0.392402	-0.146884	0.037835	-0.391017	-0.203305	0.717204	-0.750426	-0.185744	0.658308	-0.750835	-0.122018	0.670799	-0.747479	-0.131979	0.729999	-0.747585	-0.155711	0.464945	-0.744230	-0.155702	0.442862	-0.631561	-0.277058	0.308185	-0.759509	-0.296199	0.273493	-0.751365	-0.240476	0.247614	-0.752209	-0.226795	0.288449	-0.761904	-0.347937	0.113493	-0.746044	-0.321974	0.122804	-0.662850	-0.405566	0.110912	-0.694421	-0.260098	0.037265	-0.779536	-0.207800	0.046175	-0.705160	-0.181555	0.038839	-0.713037	
757	3.7850	-0.295867	1.490469	-0.542879	-0.228071	1.467623	-0.745208	-0.205049	1.452913	-0.357794	-0.153559	1.412381	-0.555574	-0.154812	0.977696	-0.435449	-0.158599	0.989792	-0.681802	-0.240420	1.035661	-0.394227	-0.240165	1.033366	-0.715304	-0.337044	1.019847	-0.500786	-0.338895	1.011697	-0.602596	-0.343918	1.010614	-0.550301	-0.191038	0.706199	-0.353235	-0.172666	0.648803	-0.354141	-0.110810	0.664778	-0.365616	-0.120765	0.725529	-0.365288	-0.142796	0.465177	-0.364810	-0.135543	0.435168	-0.474712	-0.258524	0.310706	-0.344529	-0.278019	0.273779	-0.355115	-0.208559	0.289684	-0.343372	-0.221675	0.251291	-0.347737	-0.326413	0.104456	-0.366935	-0.286609	0.100700	-0.446757	-0.375424	0.088132	-0.420779	-0.230104	0.035228	-0.320126	-0.171589	0.047216	-0.392430	-0.147007	0.037775	-0.390921	-0.203603	0.712308	-0.750981	-0.185805	0.653480	-0.751485	-0.122098	0.666231	-0.748598	-0.132310	0.725398	-0.748642	-0.154668	0.460834	-0.744695	-0.154787	0.438598	-0.632242	-0.276744	0.305090	-0.760055	-0.296233	0.270605	-0.751915	-0.240621	0.244260	-0.752375	-0.226679	0.285023	-0.762191	-0.349221	0.111280	-0.746172	-0.323662	0.120545	-0.662806	-0.407155	0.108333	-0.694914	-0.260584	0.036609	-0.780316	-0.208441	0.046109	-0.705273	-0.182026	0.038784	-0.713114	
758	3.7900	-0.295125	1.486493	-0.543032	-0.227870	1.462930	-0.745472	-0.204745	1.448102	-0.357869	-0.152783	1.407486	-0.555749	-0.155419	0.972850	-0.435262	-0.158835	0.984748	-0.682276	-0.241533	1.030486	-0.394061	-0.240792	1.027954	-0.715559	-0.337933	1.014787	-0.501284	-0.339658	1.006492	-0.602720	-0.344712	1.005443	-0.550637	-0.190856	0.701906	-0.352789	-0.172066	0.644659	-0.353721	-0.110343	0.661097	-0.365007	-0.120689	0.721796	-0.364644	-0.141457	0.461517	-0.364804	-0.134063	0.431663	-0.474593	-0.257843	0.307700	-0.344848	-0.277449	0.270811	-0.355404	-0.207890	0.286455	-0.343608	-0.221206	0.248153	-0.347920	-0.327025	0.102155	-0.367382	-0.287176	0.098053	-0.447481	-0.376094	0.085239	-0.421516	-0.230263	0.034956	-0.319710	-0.171689	0.047173	-0.392464	-0.147006	0.037729	-0.390833	-0.203944	0.707432	-0.751567	-0.185905	0.648671	-0.752160	-0.122223	0.661693	-0.749751	-0.132689	0.720816	-0.749743	-0.153871	0.456850	-0.745226	-0.153951	0.434414	-0.632997	-0.276425	0.301977	-0.760584	-0.296221	0.267663	-0.752447	-0.240747	0.240941	-0.752542	-0.226525	0.281626	-0.762497	-0.350319	0.108868	-0.746202	-0.325089	0.118172	-0.662694	-0.408584	0.105569	-0.695201	-0.260928	0.036070	-0.780996	-0.208894	0.046063	-0.705368	-0.182320	0.038749	-0.713177	
